<?xml version="1.0" encoding="iso-8859-1"?>
<!-- Generator: Adobe Illustrator 19.0.0, SVG Export Plug-In . SVG Version: 6.00 Build 0)  -->
<svg version="1.1" id="Layer_1" xmlns="http://www.w3.org/2000/svg" xmlns:xlink="http://www.w3.org/1999/xlink" x="0px" y="0px"
	 viewBox="0 0 392.559 392.559" style="enable-background:new 0 0 392.559 392.559;" xml:space="preserve">
<path style="fill:#FFC10D;" d="M149.75,21.786c-17.39,0-31.612,14.158-31.612,31.612v156.315c0,4.008-2.263,7.758-5.818,9.632
	c-29.673,15.709-46.287,47.45-42.214,80.873c4.396,36.331,33.939,65.616,70.335,69.689c44.994,5.56,88.63-28.25,89.471-79.644
	c0-29.802-16.356-56.954-42.796-70.917c-3.556-1.875-5.818-5.56-5.818-9.632V53.398C181.297,35.943,167.139,21.786,149.75,21.786z"
	/>
<g>
	<path style="fill:#194F82;" d="M267.277,95.354h22.432v22.432c0,6.012,4.848,10.925,10.925,10.925
		c6.012,0,10.925-4.848,10.925-10.925V95.354h22.432c6.012,0,10.925-4.848,10.925-10.925c0-6.012-4.848-10.925-10.925-10.925H311.56
		V51.071c0-6.012-4.848-10.925-10.925-10.925c-6.012,0-10.925,4.848-10.925,10.925v22.432h-22.432
		c-6.012,0-10.925,4.848-10.925,10.925C256.416,90.505,261.265,95.354,267.277,95.354z"/>
	<path style="fill:#194F82;" d="M333.927,189.414h-66.586c-6.012,0-10.925,4.848-10.925,10.925s4.848,10.925,10.925,10.925h66.586
		c6.012,0,10.925-4.848,10.925-10.925C344.788,194.263,339.939,189.414,333.927,189.414z"/>
	<path style="fill:#194F82;" d="M203.083,203.378V53.398C203.083,23.984,179.099,0,149.685,0S96.287,23.984,96.287,53.398v149.98
		c-34.069,20.881-52.687,59.216-47.903,99.556c5.56,46.287,43.184,83.588,89.535,88.695c53.851,8.21,116.17-38.917,113.648-101.366
		C251.762,254.578,233.337,221.931,203.083,203.378z M140.505,369.972c-36.396-4.073-66.004-33.358-70.335-69.689
		c-4.008-33.487,12.541-65.228,42.214-80.873c3.556-1.875,5.818-5.56,5.818-9.632V53.398c0-17.39,14.158-31.612,31.612-31.612
		c17.39,0,31.612,14.158,31.612,31.612v156.315c0,4.008,2.263,7.758,5.818,9.632c26.44,13.964,42.796,41.115,42.796,70.917
		C229.135,341.721,185.499,375.531,140.505,369.972z"/>
	<path style="fill:#194F82;" d="M160.675,231.434V59.087c0-6.012-4.848-10.925-10.925-10.925c-6.077,0-10.925,4.848-10.925,10.925
		v172.347c-27.798,5.172-49.002,29.608-49.002,58.893c0,33.099,26.893,59.863,59.863,59.863c33.099,0,59.863-26.893,59.863-59.863
		C209.677,260.913,188.473,236.541,160.675,231.434z M149.75,328.404c-21.01,0-38.077-17.067-38.077-38.077
		s17.067-38.077,38.077-38.077s38.141,17.067,38.141,38.077S170.824,328.404,149.75,328.404z"/>
</g>
<path style="fill:#56ACE0;" d="M149.75,252.121c-21.01,0-38.077,17.067-38.077,38.077s17.067,38.077,38.077,38.077
	s38.077-17.067,38.077-38.077S170.824,252.121,149.75,252.121z"/>
<g>
</g>
<g>
</g>
<g>
</g>
<g>
</g>
<g>
</g>
<g>
</g>
<g>
</g>
<g>
</g>
<g>
</g>
<g>
</g>
<g>
</g>
<g>
</g>
<g>
</g>
<g>
</g>
<g>
</g>
</svg>
