<?xml version="1.0" encoding="UTF-8" standalone="no"?>
<!DOCTYPE svg PUBLIC "-//W3C//DTD SVG 1.1//EN" "http://www.w3.org/Graphics/SVG/1.1/DTD/svg11.dtd">
<svg width="100%" height="100%" viewBox="0 0 196 55" version="1.1" xmlns="http://www.w3.org/2000/svg" xmlns:xlink="http://www.w3.org/1999/xlink" xml:space="preserve" xmlns:serif="http://www.serif.com/" style="fill-rule:evenodd;clip-rule:evenodd;stroke-linejoin:round;stroke-miterlimit:2;">
    <g id="veus">
        <g transform="matrix(1,0,0,1,-749.4,-513)">
            <path d="M843.6,523.21C842.339,523.206 841.197,523.978 840.73,525.15L830.73,549.88L821,525.35C820.565,524.043 819.316,523.17 817.94,523.21C816.328,523.209 814.988,524.508 814.94,526.12C814.95,526.609 815.066,527.09 815.28,527.53L827.19,555.53C827.675,556.988 829.054,557.974 830.59,557.96L830.93,557.96C832.483,557.989 833.884,557.002 834.38,555.53L846.33,527.35C846.503,526.948 846.602,526.517 846.62,526.08C846.611,524.501 845.309,523.207 843.73,523.207C843.687,523.207 843.643,523.208 843.6,523.21Z" style="fill:rgb(29,29,27);fill-rule:nonzero;"/>
        </g>
        <g transform="matrix(1,0,0,1,-749.4,-513)">
            <path d="M875.91,552.12L858.85,552.12L858.85,543L873.48,543C874.932,543.006 876.134,541.822 876.15,540.37C876.156,538.895 874.955,537.672 873.48,537.65L858.85,537.65L858.85,528.85L875.66,528.85C875.663,528.85 875.667,528.85 875.67,528.85C877.135,528.85 878.34,527.645 878.34,526.18C878.34,526.177 878.34,526.173 878.34,526.17C878.324,524.708 877.122,523.511 875.66,523.5L855.89,523.5C854.244,523.5 852.89,524.854 852.89,526.5L852.89,554.5C852.89,556.146 854.244,557.5 855.89,557.5L875.89,557.5C877.355,557.5 878.56,556.295 878.56,554.83C878.56,553.365 877.355,552.16 875.89,552.16L875.91,552.12Z" style="fill:rgb(29,29,27);fill-rule:nonzero;"/>
        </g>
        <g transform="matrix(1,0,0,1,-749.4,-513)">
            <path d="M910.45,523.21C908.804,523.21 907.45,524.564 907.45,526.21L907.45,543C907.45,549.27 904.2,552.43 898.9,552.43C893.6,552.43 890.3,549.07 890.3,542.76L890.3,526.17C890.3,524.524 888.946,523.17 887.3,523.17C885.654,523.17 884.3,524.524 884.3,526.17L884.3,543C884.3,552.86 889.93,558 898.77,558C907.61,558 913.4,552.9 913.4,542.75L913.4,526.17C913.4,526.163 913.4,526.157 913.4,526.15C913.4,524.537 912.073,523.21 910.46,523.21C910.457,523.21 910.453,523.21 910.45,523.21Z" style="fill:rgb(29,29,27);fill-rule:nonzero;"/>
        </g>
        <g transform="matrix(1,0,0,1,-749.4,-513)">
            <path d="M934.22,537.74C927.66,536.18 926.1,535.01 926.1,532.39L926.1,532.29C926.1,530.06 928.1,528.29 931.64,528.29C934.444,528.356 937.167,529.254 939.46,530.87C939.929,531.158 940.47,531.307 941.02,531.3C941.033,531.3 941.047,531.3 941.06,531.3C942.58,531.3 943.83,530.05 943.83,528.53C943.83,528.53 943.83,528.53 943.83,528.53C943.851,527.56 943.35,526.651 942.52,526.15C939.335,524.021 935.571,522.921 931.74,523C924.98,523 920.13,527 920.13,532.86L920.13,532.96C920.13,539.22 924.21,541.36 931.45,543.11C937.76,544.57 939.12,545.88 939.12,548.31L939.12,548.4C939.12,550.93 936.79,552.68 933.12,552.68C929.633,552.68 926.257,551.439 923.6,549.18C923.109,548.81 922.51,548.609 921.895,548.609C920.342,548.609 919.064,549.887 919.064,551.44C919.064,552.328 919.481,553.165 920.19,553.7C923.875,556.493 928.376,558.004 933,558C940.14,558 945.15,554.21 945.15,547.84L945.15,547.75C945.1,542.06 941.41,539.48 934.22,537.74Z" style="fill:rgb(29,29,27);fill-rule:nonzero;"/>
        </g>
    </g>
    <g id="simbolo" transform="matrix(1,0,0,1,-749.4,-513)">
        <path d="M804.18,540.48C804.131,555.472 791.782,567.78 776.79,567.78C761.764,567.78 749.4,555.416 749.4,540.39C749.4,525.364 761.764,513 776.79,513C791.821,513.016 804.18,525.389 804.18,540.42C804.18,540.44 804.18,540.46 804.18,540.48ZM803.98,536.94C803.836,535.784 803.619,534.639 803.33,533.51L793.92,533.51C791.104,533.515 788.79,535.834 788.79,538.65C788.79,538.653 788.79,538.657 788.79,538.66L788.79,542.09C788.79,543.028 788.018,543.8 787.08,543.8C786.142,543.8 785.37,543.028 785.37,542.09L785.37,528.47C785.373,528.394 785.375,528.319 785.375,528.243C785.375,525.424 783.055,523.103 780.235,523.103C777.415,523.103 775.095,525.424 775.095,528.243C775.095,528.319 775.097,528.394 775.1,528.47L775.1,552.39C775.103,552.434 775.105,552.477 775.105,552.521C775.105,553.465 774.329,554.241 773.385,554.241C772.441,554.241 771.665,553.465 771.665,552.521C771.665,552.477 771.667,552.434 771.67,552.39L771.67,538.67C771.673,538.594 771.675,538.519 771.675,538.443C771.675,535.624 769.355,533.303 766.535,533.303C763.715,533.303 761.395,535.624 761.395,538.443C761.395,538.519 761.397,538.594 761.4,538.67L761.4,542.09C761.4,543.03 760.63,543.805 759.69,543.81L749.6,543.81C749.734,544.965 749.941,546.111 750.22,547.24L759.71,547.24C762.52,547.235 764.83,544.92 764.83,542.11C764.83,542.107 764.83,542.103 764.83,542.1L764.83,538.68C764.83,537.742 765.602,536.97 766.54,536.97C767.478,536.97 768.25,537.742 768.25,538.68L768.25,552.39C768.247,552.466 768.245,552.541 768.245,552.617C768.245,555.436 770.565,557.757 773.385,557.757C776.205,557.757 778.525,555.436 778.525,552.617C778.525,552.541 778.523,552.466 778.52,552.39L778.52,528.47C778.52,527.532 779.292,526.76 780.23,526.76C781.168,526.76 781.94,527.532 781.94,528.47L781.94,542.09C781.937,542.166 781.935,542.241 781.935,542.317C781.935,545.136 784.255,547.457 787.075,547.457C789.895,547.457 792.215,545.136 792.215,542.317C792.215,542.241 792.213,542.166 792.21,542.09L792.21,538.67C792.21,537.73 792.98,536.955 793.92,536.95L804,536.95L803.98,536.94Z" style="fill:rgb(29,29,27);fill-rule:nonzero;"/>
    </g>
</svg>
